<svg width="36" height="36" viewBox="0 0 36 36" fill="none" xmlns="http://www.w3.org/2000/svg">
  <path fill-rule="evenodd" clip-rule="evenodd" d="M18.0324 0.13501C8.11102 0.13501 0.0657349 8.31591 0.0657349 18.4084C0.0657349 26.4823 5.21374 33.332 12.3524 35.7483C13.2504 35.9175 13.58 35.3519 13.58 34.8692C13.58 34.4335 13.5634 32.994 13.5556 31.4671C8.55727 32.5725 7.50255 29.311 7.50255 29.311C6.68528 27.1988 5.50768 26.6371 5.50768 26.6371C3.87757 25.503 5.63057 25.5263 5.63057 25.5263C7.43473 25.6549 8.3847 27.4094 8.3847 27.4094C9.98715 30.2031 12.5878 29.3954 13.613 28.9285C13.7743 27.7477 14.24 26.941 14.7537 26.485C10.7631 26.0229 6.56805 24.456 6.56805 17.454C6.56805 15.4589 7.2699 13.8288 8.4192 12.5491C8.23268 12.0885 7.61767 10.2302 8.59328 7.71314C8.59328 7.71314 10.102 7.22202 13.5354 9.58626C14.9686 9.18141 16.5056 8.97831 18.0324 8.97141C19.5593 8.97831 21.0975 9.18141 22.5333 9.58626C25.9625 7.22202 27.4692 7.71314 27.4692 7.71314C28.4471 10.2302 27.8318 12.0885 27.6453 12.5491C28.7973 13.8288 29.4944 15.4589 29.4944 17.454C29.4944 24.4726 25.2913 26.018 21.2906 26.4704C21.935 27.0375 22.5092 28.1496 22.5092 29.8545C22.5092 32.2992 22.4884 34.267 22.4884 34.8692C22.4884 35.3555 22.8118 35.9253 23.7225 35.7459C30.8573 33.3268 35.9988 26.4795 35.9988 18.4084C35.9988 8.31591 27.9548 0.13501 18.0324 0.13501Z" fill="#fff"/>
  <path fill-rule="evenodd" clip-rule="evenodd" d="M6.87064 26.3717C6.83107 26.4628 6.69064 26.4897 6.5627 26.4274C6.43239 26.3677 6.3592 26.244 6.40145 26.1529C6.44012 26.0594 6.58085 26.0337 6.71087 26.0957C6.84148 26.1556 6.91586 26.2806 6.87064 26.3717Z" fill="#fff"/>
  <path fill-rule="evenodd" clip-rule="evenodd" d="M7.59838 27.1973C7.51266 27.2781 7.34515 27.2406 7.23151 27.1128C7.11398 26.9854 7.09197 26.8151 7.17884 26.733C7.26721 26.6523 7.42965 26.6901 7.54746 26.8175C7.66498 26.9464 7.68793 27.1155 7.59838 27.1973Z" fill="#fff"/>
  <path fill-rule="evenodd" clip-rule="evenodd" d="M8.3068 28.2497C8.1967 28.3275 8.0167 28.2546 7.9054 28.092C7.79538 27.9296 7.79538 27.7347 7.9078 27.6566C8.0194 27.5785 8.1967 27.6487 8.3095 27.81C8.41923 27.975 8.41923 28.1701 8.3068 28.2497Z" fill="#fff"/>
  <path fill-rule="evenodd" clip-rule="evenodd" d="M9.2773 29.2664C9.17882 29.3769 8.96905 29.3472 8.81552 29.1965C8.65847 29.0492 8.61475 28.8401 8.71352 28.7297C8.8132 28.6189 9.0241 28.65 9.17882 28.7996C9.33475 28.9466 9.3823 29.1572 9.2773 29.2664Z" fill="#fff"/>
  <path fill-rule="evenodd" clip-rule="evenodd" d="M10.6161 29.8568C10.5727 29.9999 10.3706 30.065 10.1671 30.0042C9.96397 29.9415 9.83092 29.7738 9.87202 29.6292C9.91424 29.4852 10.1172 29.4174 10.3222 29.4825C10.525 29.5448 10.6584 29.7112 10.6161 29.8568Z" fill="#fff"/>
  <path fill-rule="evenodd" clip-rule="evenodd" d="M12.0865 29.9664C12.0915 30.1171 11.919 30.2421 11.7054 30.2445C11.4906 30.2496 11.3168 30.1277 11.3145 29.9794C11.3145 29.8272 11.4831 29.7034 11.6979 29.6998C11.9115 29.6955 12.0865 29.8166 12.0865 29.9664Z" fill="#fff"/>
  <path fill-rule="evenodd" clip-rule="evenodd" d="M13.4547 29.7294C13.4803 29.8765 13.3318 30.0276 13.1197 30.0675C12.9111 30.1065 12.7181 30.0157 12.6916 29.8698C12.6657 29.7192 12.8169 29.5682 13.0251 29.5291C13.2375 29.4916 13.4277 29.58 13.4547 29.7294Z" fill="#fff"/>
</svg>
