<svg width="36" height="36" viewBox="0 0 36 36" fill="none" xmlns="http://www.w3.org/2000/svg">
  <path fill-rule="evenodd" clip-rule="evenodd" d="M0 18C0 8.0589 8.0589 0 18 0C27.9411 0 36 8.0589 36 18C36 27.9411 27.9411 36 18 36C8.0589 36 0 27.9411 0 18ZM17.4609 14.6306L17.4987 15.2535L16.8692 15.1772C14.5777 14.8849 12.5758 13.8934 10.876 12.2282L10.045 11.402L9.831 12.0121C9.3777 13.3722 9.66727 14.8086 10.6116 15.7746C11.1152 16.3085 11.0019 16.3847 10.1332 16.0669C9.831 15.9653 9.56655 15.8891 9.54142 15.9272C9.4533 16.0161 9.7554 17.1728 9.99465 17.6304C10.322 18.2659 10.9893 18.8888 11.7196 19.2575L12.3365 19.5498L11.6063 19.5625C10.9012 19.5625 10.876 19.5752 10.9516 19.8421C11.2034 20.6684 12.198 21.5454 13.306 21.9268L14.0866 22.1937L13.4067 22.6004C12.3995 23.1851 11.216 23.5156 10.0324 23.5411C9.46583 23.5537 9 23.6046 9 23.6428C9 23.7698 10.5361 24.4816 11.43 24.7613C14.1118 25.5875 17.2972 25.2317 19.6894 23.8207C21.3892 22.8165 23.0889 20.8209 23.8821 18.8888C24.3102 17.8592 24.7383 15.978 24.7383 15.0755C24.7383 14.4908 24.776 14.4146 25.4811 13.7154C25.8966 13.3087 26.2869 12.8638 26.3625 12.7367C26.4884 12.4952 26.4758 12.4951 25.8337 12.7112C24.7635 13.0926 24.6124 13.0418 25.1412 12.4697C25.5315 12.063 25.9973 11.3257 25.9973 11.1097C25.9973 11.0715 25.8085 11.1351 25.5944 11.2495C25.3678 11.3766 24.8642 11.5672 24.4865 11.6817L23.8066 11.8978L23.1896 11.4783C22.8497 11.2495 22.3712 10.9953 22.1194 10.919C21.4773 10.741 20.4953 10.7665 19.9161 10.9699C18.3422 11.5418 17.3476 13.0163 17.4609 14.6306Z" fill="#fff"/>
</svg>
